<?xml version="1.0" standalone="no"?>
<!DOCTYPE svg PUBLIC "-//W3C//DTD SVG 20010904//EN"
 "http://www.w3.org/TR/2001/REC-SVG-20010904/DTD/svg10.dtd">
<svg version="1.0" xmlns="http://www.w3.org/2000/svg"
 width="106.000000pt" height="105.000000pt" viewBox="0 0 106.000000 105.000000"
 preserveAspectRatio="xMidYMid meet">
<metadata>
Created by potrace 1.10, written by Peter Selinger 2001-2011
</metadata>
<g transform="translate(0.000000,105.000000) scale(0.100000,-0.100000)"
fill="#000000" stroke="none">
<path d="M252 1030 c0 -14 2 -19 5 -12 2 6 2 18 0 25 -3 6 -5 1 -5 -13z"/>
<path d="M860 1040 c0 -5 5 -10 11 -10 5 0 7 5 4 10 -3 6 -8 10 -11 10 -2 0
-4 -4 -4 -10z"/>
<path d="M950 1039 c0 -5 5 -7 10 -4 6 3 10 8 10 11 0 2 -4 4 -10 4 -5 0 -10
-5 -10 -11z"/>
<path d="M986 1035 c4 -10 0 -15 -11 -15 -9 0 -14 -4 -10 -10 9 -15 35 0 35
21 0 10 -4 19 -10 19 -5 0 -7 -7 -4 -15z"/>
<path d="M342 1015 c-146 -56 -262 -176 -313 -321 -20 -61 -25 -109 -10 -118
5 -4 7 3 4 14 -3 11 -1 20 5 20 6 0 8 9 5 20 -3 11 -1 20 5 20 6 0 8 8 5 18
-2 10 3 24 11 31 9 8 16 23 16 35 0 12 11 33 24 48 14 14 22 29 18 34 -4 4 1
4 10 1 9 -3 22 0 28 8 10 12 8 13 -10 10 -19 -4 -16 2 16 34 30 29 43 37 56
30 10 -6 19 -5 23 1 6 9 -1 14 -17 11 -4 0 -5 6 -2 14 4 8 10 12 16 9 5 -3 22
6 38 21 17 16 33 24 41 20 8 -6 10 -4 4 5 -6 10 -1 11 21 6 18 -4 24 -3 16 2
-11 7 -10 10 3 16 25 9 42 7 25 -4 -12 -7 -10 -9 7 -7 12 0 20 3 17 6 -3 3 15
13 38 22 l43 18 -40 0 c-22 0 -68 -11 -103 -24z"/>
<path d="M590 1030 c19 -5 53 -12 74 -15 30 -5 36 -9 25 -17 -11 -7 -9 -9 9
-5 12 3 20 1 16 -4 -3 -5 2 -9 11 -9 9 0 35 -10 58 -22 23 -12 45 -22 49 -23
3 0 10 -4 15 -9 4 -5 3 -6 -3 -3 -6 4 -20 -3 -30 -16 -18 -21 -18 -22 0 -5 17
15 22 15 47 3 15 -8 30 -24 34 -35 3 -11 9 -19 13 -17 4 1 8 -2 9 -8 0 -5 -3
-9 -7 -8 -4 1 -16 -8 -26 -20 l-19 -22 22 18 c14 12 23 15 28 7 3 -5 11 -8 16
-4 5 3 6 10 3 16 -5 7 -2 8 5 4 7 -5 10 -10 7 -13 -3 -3 3 -17 14 -30 10 -13
18 -30 16 -36 -1 -7 -1 -8 2 -3 3 5 12 -10 22 -35 12 -32 14 -48 6 -58 -9 -12
-8 -13 4 -9 10 4 15 -1 16 -16 0 -11 4 -29 8 -38 16 -37 -13 -15 -97 71 -48
49 -87 83 -87 77 0 -6 43 -53 96 -105 l96 -94 -6 -56 c-4 -31 -7 -64 -8 -73
-1 -10 -6 -18 -11 -18 -5 0 -7 -9 -4 -20 3 -10 2 -20 -2 -22 -10 -5 -56 -101
-53 -111 1 -5 -6 -6 -17 -2 -23 7 -38 -12 -22 -28 9 -9 11 -8 6 6 -4 9 -3 17
3 17 17 0 7 -33 -11 -36 -16 -2 -22 8 -17 31 1 6 -2 7 -6 2 -11 -10 -13 -47
-2 -41 19 12 6 -15 -14 -30 -13 -9 -17 -14 -9 -10 9 5 12 3 7 -5 -4 -6 -11 -9
-16 -6 -5 3 -18 -7 -29 -21 -12 -15 -21 -23 -21 -19 0 5 -8 1 -17 -7 -10 -8
-26 -16 -35 -17 -42 -3 -46 -5 -40 -19 4 -11 1 -13 -7 -7 -8 4 -16 3 -20 -3
-5 -8 -16 -7 -36 3 l-30 15 25 -21 c24 -21 24 -21 3 -15 -12 4 -32 2 -43 -4
-29 -16 -48 -7 -105 48 -60 58 -95 99 -76 87 15 -8 65 -17 116 -19 47 -2 159
26 171 42 6 8 26 23 45 32 19 9 33 22 31 29 -1 7 7 25 18 42 15 21 22 47 24
94 2 36 -1 68 -6 71 -4 3 -6 9 -3 14 3 5 -1 22 -9 38 -8 15 -16 62 -17 104 -2
42 -6 75 -10 72 -4 -2 -9 3 -13 11 -3 9 0 15 9 15 8 0 14 6 12 13 -1 6 3 11
10 10 7 -2 10 4 7 12 -4 8 -1 15 5 15 6 0 11 -5 11 -12 0 -6 3 -9 6 -5 8 8
-27 87 -39 87 -5 0 -6 -7 -3 -15 3 -8 9 -22 12 -30 4 -9 -6 -27 -24 -45 -30
-29 -30 -31 -16 -65 8 -19 14 -54 14 -78 0 -24 7 -66 15 -93 19 -62 19 -155 1
-198 -59 -141 -310 -183 -459 -77 -85 61 -109 143 -77 262 11 41 20 93 20 117
0 24 7 56 15 72 14 26 13 29 -10 44 -52 34 -56 85 -7 110 35 17 67 6 89 -32
16 -28 17 -28 46 -14 45 22 154 27 206 9 43 -15 44 -15 63 9 29 36 54 47 79
33 14 -7 25 -7 31 -1 7 7 3 12 -11 17 -12 3 -21 11 -21 18 0 8 -3 8 -12 -1 -7
-7 -19 -12 -27 -12 -8 0 -27 -11 -41 -25 -27 -25 -27 -25 -86 -10 -55 14 -65
14 -132 -3 -55 -14 -72 -16 -68 -6 3 8 0 11 -10 7 -7 -3 -14 -1 -14 4 0 5 -13
16 -29 26 -23 14 -33 14 -60 4 -17 -6 -31 -16 -31 -21 0 -5 -7 -17 -15 -26
-18 -20 -8 -56 22 -88 18 -18 28 -56 12 -46 -5 3 -6 -10 -4 -28 5 -28 4 -30
-4 -10 -16 35 -18 26 -8 -26 6 -28 7 -57 2 -68 -13 -30 -17 -63 -19 -150 -1
-67 2 -86 17 -102 11 -12 16 -26 12 -32 -3 -6 -3 -9 2 -8 14 4 63 -53 56 -65
-3 -6 -1 -7 6 -3 6 4 9 12 5 18 -20 32 64 -34 136 -107 l85 -87 62 5 c168 13
352 167 412 345 29 86 29 248 0 334 -60 180 -244 333 -411 344 -52 3 -57 2
-28 -6z"/>
<path d="M60 1021 c0 -5 7 -11 15 -15 8 -3 15 -1 15 3 0 5 -7 11 -15 15 -8 3
-15 1 -15 -3z"/>
<path d="M170 1020 c-13 -8 -12 -10 3 -10 9 0 17 5 17 10 0 12 -1 12 -20 0z"/>
<path d="M278 1023 c7 -3 16 -2 19 1 4 3 -2 6 -13 5 -11 0 -14 -3 -6 -6z"/>
<path d="M785 1020 c3 -5 8 -10 11 -10 2 0 4 5 4 10 0 6 -5 10 -11 10 -5 0 -7
-4 -4 -10z"/>
<path d="M880 1020 c0 -5 5 -10 10 -10 6 0 10 5 10 10 0 6 -4 10 -10 10 -5 0
-10 -4 -10 -10z"/>
<path d="M855 1010 c3 -5 8 -10 11 -10 2 0 4 5 4 10 0 6 -5 10 -11 10 -5 0 -7
-4 -4 -10z"/>
<path d="M107 980 c-3 -11 -1 -23 4 -26 5 -3 9 6 9 20 0 31 -6 34 -13 6z"/>
<path d="M825 990 c3 -5 8 -10 11 -10 2 0 4 5 4 10 0 6 -5 10 -11 10 -5 0 -7
-4 -4 -10z"/>
<path d="M908 995 c-4 -4 -4 -13 -2 -20 3 -7 1 -16 -5 -20 -6 -3 -11 -11 -11
-18 0 -6 7 -1 16 11 15 21 17 62 2 47z"/>
<path d="M933 975 c0 -13 3 -22 8 -19 5 3 9 14 9 25 0 10 -4 19 -9 19 -5 0 -8
-11 -8 -25z"/>
<path d="M1000 981 c0 -5 7 -14 15 -21 22 -18 46 3 26 23 -10 10 -11 9 -6 -5
4 -11 2 -18 -4 -18 -6 0 -11 7 -11 15 0 8 -4 15 -10 15 -5 0 -10 -4 -10 -9z"/>
<path d="M144 956 c10 -8 15 -20 10 -27 -4 -8 -3 -10 4 -5 18 11 14 24 -10 36
-22 10 -22 10 -4 -4z"/>
<path d="M54 938 c-3 -4 4 -8 15 -8 12 0 21 4 21 8 0 5 -7 9 -15 9 -9 0 -18
-4 -21 -9z"/>
<path d="M955 940 c-4 -6 6 -10 22 -10 22 0 25 2 13 10 -19 12 -27 12 -35 0z"/>
<path d="M56 909 c6 -11 44 -12 44 -1 0 4 -11 8 -25 8 -14 1 -22 -2 -19 -7z"/>
<path d="M957 906 c-4 -10 0 -12 14 -9 22 6 26 23 5 23 -8 0 -16 -6 -19 -14z"/>
<path d="M13 893 c11 -3 16 -11 13 -19 -6 -17 10 -19 20 -3 8 13 -14 29 -36
28 -10 -1 -9 -3 3 -6z"/>
<path d="M1003 884 c-3 -8 0 -21 6 -27 9 -9 11 -8 6 4 -4 10 0 19 10 23 13 5
15 1 10 -17 -5 -19 -4 -20 5 -4 6 9 8 22 5 27 -9 15 -35 12 -42 -6z"/>
<path d="M311 887 c28 -21 59 -36 59 -29 0 5 -11 14 -25 20 -24 11 -44 16 -34
9z"/>
<path d="M265 870 c-3 -6 1 -7 9 -4 18 7 21 14 7 14 -6 0 -13 -4 -16 -10z"/>
<path d="M659 843 c-13 -16 -12 -17 4 -4 9 7 17 15 17 17 0 8 -8 3 -21 -13z"/>
<path d="M980 843 c0 -4 5 -15 10 -23 8 -13 10 -13 10 2 0 9 -4 20 -10 23 -5
3 -10 3 -10 -2z"/>
<path d="M286 801 c-31 -34 14 -84 54 -59 26 17 25 30 -3 56 -28 27 -30 27
-51 3z m26 -18 c-6 -2 -9 -9 -6 -14 3 -6 12 -5 22 3 15 12 16 11 3 -5 -10 -13
-17 -15 -27 -6 -19 16 -17 29 4 28 10 0 12 -3 4 -6z"/>
<path d="M722 813 c-7 -2 -17 -14 -23 -24 -8 -16 -6 -23 13 -38 39 -33 86 13
52 50 -18 20 -21 21 -42 12z m38 -32 c0 -5 -7 -14 -15 -21 -10 -9 -15 -9 -15
-1 0 6 6 11 13 12 6 0 3 4 -8 9 -19 8 -19 9 3 9 12 1 22 -3 22 -8z"/>
<path d="M1015 790 c4 -6 11 -7 17 -4 6 4 8 -2 4 -17 -6 -20 -5 -21 4 -6 13
20 5 37 -16 37 -8 0 -12 -5 -9 -10z"/>
<path d="M375 750 c-7 -11 22 -26 32 -16 4 3 -1 6 -11 6 -9 0 -14 5 -11 10 3
6 4 10 1 10 -3 0 -8 -5 -11 -10z"/>
<path d="M450 645 c0 -2 6 -8 13 -14 10 -8 14 -7 14 2 0 8 -6 14 -14 14 -7 0
-13 -1 -13 -2z"/>
<path d="M606 637 c3 -10 9 -15 12 -12 3 3 0 11 -7 18 -10 9 -11 8 -5 -6z"/>
<path d="M580 631 c0 -6 4 -13 10 -16 6 -3 7 1 4 9 -7 18 -14 21 -14 7z"/>
<path d="M437 593 c-10 -10 -8 -61 2 -68 17 -10 33 33 21 55 -12 22 -14 23
-23 13z"/>
<path d="M595 581 c-8 -27 3 -63 18 -58 16 5 16 69 0 74 -6 2 -14 -5 -18 -16z"/>
<path d="M493 519 c-18 -5 -33 -14 -33 -20 0 -6 7 -6 19 1 28 15 77 12 114 -5
l32 -16 -24 21 c-13 11 -29 20 -36 20 -7 0 -19 2 -27 4 -7 2 -28 0 -45 -5z"/>
<path d="M414 502 c23 -26 23 -26 23 -7 0 8 -3 13 -5 10 -3 -3 -12 1 -21 7
-10 8 -9 4 3 -10z"/>
<path d="M14 438 c4 -83 67 -206 143 -281 84 -83 197 -138 295 -143 58 -3 67
-2 43 6 -16 6 -49 12 -73 14 -24 3 -63 16 -88 31 -24 14 -44 23 -44 20 0 -3
-20 8 -45 25 -25 17 -45 36 -45 42 0 5 -7 7 -16 4 -8 -3 -13 -2 -10 3 3 4 -3
16 -14 26 -20 19 -28 41 -10 30 6 -3 7 1 4 10 -6 14 -8 14 -19 -1 -9 -14 -14
-14 -20 -4 -6 9 -4 11 6 4 8 -4 -1 10 -19 33 -18 23 -32 45 -31 50 4 21 -2 44
-10 39 -5 -3 -14 8 -20 24 -6 20 -7 30 0 30 6 0 7 5 2 13 -4 6 -13 28 -20 47
-12 34 -12 34 -9 -22z"/>
<path d="M51 474 c0 -11 3 -14 6 -6 3 7 2 16 -1 19 -3 4 -6 -2 -5 -13z"/>
<path d="M493 480 c-30 -12 -39 -47 -17 -71 23 -25 85 -26 107 -1 23 25 21 37
-9 61 -29 22 -46 25 -81 11z m72 -29 c3 -1 4 -4 4 -8 -4 -21 -12 -31 -30 -36
-12 -3 -17 -1 -12 6 4 7 0 8 -11 4 -10 -4 -15 -3 -11 4 4 5 16 7 28 4 17 -5
19 -4 7 4 -12 9 -13 11 -1 11 8 0 12 3 9 6 -4 3 -20 -2 -37 -10 -27 -14 -30
-14 -25 -1 4 8 10 15 16 15 5 0 7 4 3 9 -3 6 6 6 25 1 17 -5 33 -9 35 -9z"/>
<path d="M406 393 c-6 -14 -5 -15 5 -6 7 7 10 15 7 18 -3 3 -9 -2 -12 -12z"/>
<path d="M614 389 c-3 -6 -1 -16 6 -22 10 -9 11 -9 5 2 -4 8 -2 17 6 22 9 6
10 9 2 9 -6 0 -15 -5 -19 -11z"/>
<path d="M625 339 c-4 -6 -5 -12 -2 -15 2 -3 7 2 10 11 7 17 1 20 -8 4z"/>
<path d="M406 323 c-6 -14 -5 -15 5 -6 7 7 10 15 7 18 -3 3 -9 -2 -12 -12z"/>
<path d="M450 331 c0 -7 16 -19 36 -27 28 -12 43 -13 70 -4 18 6 36 16 40 21
11 18 -5 23 -30 9 -24 -12 -63 -10 -98 5 -11 4 -18 3 -18 -4z"/>
<path d="M845 330 c-3 -5 -1 -10 4 -10 6 0 11 5 11 10 0 6 -2 10 -4 10 -3 0
-8 -4 -11 -10z"/>
<path d="M965 320 c3 -5 8 -10 11 -10 2 0 4 5 4 10 0 6 -5 10 -11 10 -5 0 -7
-4 -4 -10z"/>
<path d="M416 302 c-2 -4 4 -8 14 -8 10 0 16 4 14 8 -3 4 -9 8 -14 8 -5 0 -11
-4 -14 -8z"/>
<path d="M736 287 c3 -10 9 -15 12 -12 3 3 0 11 -7 18 -10 9 -11 8 -5 -6z"/>
<path d="M1021 272 c-8 -14 -5 -18 12 -19 16 -2 18 0 8 6 -7 5 -10 14 -7 20 4
6 5 11 2 11 -3 0 -10 -8 -15 -18z"/>
<path d="M241 264 c0 -11 3 -14 6 -6 3 7 2 16 -1 19 -3 4 -6 -2 -5 -13z"/>
<path d="M586 267 c-16 -12 -16 -13 2 -13 10 0 19 6 19 13 0 7 -1 13 -2 13 -1
0 -9 -6 -19 -13z"/>
<path d="M625 271 c-3 -5 -2 -12 3 -15 5 -3 9 1 9 9 0 17 -3 19 -12 6z"/>
<path d="M400 266 c0 -3 9 -10 20 -16 11 -6 20 -8 20 -6 0 3 -9 10 -20 16 -11
6 -20 8 -20 6z"/>
<path d="M450 266 c0 -2 7 -7 16 -10 8 -3 12 -2 9 4 -6 10 -25 14 -25 6z"/>
<path d="M386 228 c3 -5 10 -6 15 -3 13 9 11 12 -6 12 -8 0 -12 -4 -9 -9z"/>
<path d="M780 205 c-14 -17 -35 -21 -24 -4 4 8 0 8 -15 0 -25 -14 -28 -23 -4
-14 11 5 14 3 8 -6 -6 -10 -3 -11 12 -3 20 11 50 42 40 42 -2 0 -10 -7 -17
-15z"/>
<path d="M976 212 c-3 -5 1 -9 9 -9 8 0 12 4 9 9 -3 4 -7 8 -9 8 -2 0 -6 -4
-9 -8z"/>
<path d="M295 200 c3 -5 8 -10 11 -10 2 0 4 5 4 10 0 6 -5 10 -11 10 -5 0 -7
-4 -4 -10z"/>
<path d="M1014 171 c2 -9 9 -16 17 -16 20 0 18 28 -2 31 -11 1 -16 -4 -15 -15z
m26 -1 c0 -5 -5 -10 -11 -10 -5 0 -7 5 -4 10 3 6 8 10 11 10 2 0 4 -4 4 -10z"/>
<path d="M100 176 c0 -2 8 -10 18 -17 15 -13 16 -12 3 4 -13 16 -21 21 -21 13z"/>
<path d="M219 153 c-13 -16 -12 -17 4 -4 9 7 17 15 17 17 0 8 -8 3 -21 -13z"/>
<path d="M804 157 c4 -27 12 -28 32 -5 11 13 12 18 3 11 -11 -9 -18 -10 -27
-1 -8 8 -10 6 -8 -5z"/>
<path d="M944 157 c3 -10 6 -21 6 -23 0 -2 12 -4 28 -3 l27 0 -25 12 c-14 6
-29 16 -33 22 -5 6 -6 2 -3 -8z"/>
<path d="M65 140 c-18 -8 -17 -9 8 -9 15 -1 27 4 27 9 0 12 -8 12 -35 0z"/>
<path d="M478 133 c7 -3 16 -2 19 1 4 3 -2 6 -13 5 -11 0 -14 -3 -6 -6z"/>
<path d="M150 126 c0 -2 8 -10 18 -17 15 -13 16 -12 3 4 -13 16 -21 21 -21 13z"/>
<path d="M55 109 c7 -11 35 -12 35 -1 0 4 -9 8 -20 9 -11 1 -18 -2 -15 -8z"/>
<path d="M528 113 c6 -2 18 -2 25 0 6 3 1 5 -13 5 -14 0 -19 -2 -12 -5z"/>
<path d="M946 105 c-10 -7 -15 -18 -11 -24 3 -6 1 -11 -4 -11 -6 0 -11 8 -12
18 0 10 -2 12 -6 4 -3 -7 -2 -19 1 -27 7 -20 36 -7 36 16 0 12 7 19 20 19 11
0 20 5 20 10 0 14 -22 12 -44 -5z"/>
<path d="M12 93 c10 -2 18 -11 18 -19 0 -8 5 -12 10 -9 15 9 -8 35 -29 34 -13
-1 -13 -2 1 -6z"/>
<path d="M105 91 c-11 -11 -4 -41 10 -41 8 0 15 5 15 10 0 6 -4 10 -10 10 -5
0 -10 5 -10 10 0 15 24 7 32 -10 5 -11 7 -9 7 7 1 16 -4 21 -19 20 -12 -1 -23
-3 -25 -6z"/>
<path d="M1010 86 c0 -9 0 -19 -1 -23 0 -4 5 -9 11 -11 8 -3 10 3 5 17 -3 12
-2 21 4 21 5 0 12 -8 15 -17 4 -14 4 -14 3 2 -3 24 -37 34 -37 11z"/>
<path d="M835 70 c-3 -5 -1 -10 4 -10 6 0 11 5 11 10 0 6 -2 10 -4 10 -3 0 -8
-4 -11 -10z"/>
<path d="M205 60 c3 -5 11 -10 16 -10 6 0 7 5 4 10 -3 6 -11 10 -16 10 -6 0
-7 -4 -4 -10z"/>
<path d="M395 50 c-3 -6 1 -7 9 -4 18 7 21 14 7 14 -6 0 -13 -4 -16 -10z"/>
<path d="M64 38 c-4 -7 -4 -10 1 -6 4 4 14 3 22 -4 11 -8 12 -7 7 6 -7 19 -20
21 -30 4z"/>
<path d="M154 39 c-5 -8 -2 -10 8 -6 9 3 21 0 28 -6 10 -9 11 -9 8 3 -6 19
-34 25 -44 9z"/>
<path d="M247 30 c-3 -11 -2 -22 2 -24 4 -3 8 6 9 20 2 29 -4 31 -11 4z"/>
<path d="M787 34 c5 -13 2 -16 -9 -12 -8 3 -15 1 -15 -6 0 -6 8 -12 17 -12 17
0 25 32 9 41 -5 4 -6 -2 -2 -11z"/>
<path d="M957 35 c-4 -8 -2 -17 3 -20 6 -4 10 3 10 14 0 25 -6 27 -13 6z"/>
<path d="M981 43 c0 -4 4 -17 9 -28 8 -19 9 -19 9 2 1 12 -3 25 -9 28 -5 3
-10 3 -9 -2z"/>
<path d="M875 30 c-3 -5 1 -10 9 -10 9 0 16 5 16 10 0 6 -4 10 -9 10 -6 0 -13
-4 -16 -10z"/>
<path d="M275 20 c-3 -6 1 -7 9 -4 18 7 21 14 7 14 -6 0 -13 -4 -16 -10z"/>
</g>
</svg>
